<svg width="96" height="96" viewBox="0 0 96 96" fill="none" xmlns="http://www.w3.org/2000/svg">
<g clip-path="url(#clip0_123_6)">
<circle cx="48" cy="48" r="48" fill="#FF3030"/>
<path fill-rule="evenodd" clip-rule="evenodd" d="M35.6051 26C36.4479 26.0001 37.1313 26.6834 37.1314 27.5263V32.3597H41.9644C42.8074 32.3597 43.4907 33.0431 43.4907 33.886V52.9648C43.4907 53.8077 42.8073 54.4911 41.9644 54.4911H37.1314V59.3245C37.1313 60.1673 36.4479 60.8504 35.6051 60.8504H22.8857C22.0428 60.8503 21.3594 60.1673 21.3593 59.3245V54.4911H16.5263C15.6834 54.4911 15 53.8077 15 52.9648V33.886C15 33.0431 15.6834 32.3597 16.5263 32.3597H21.3593V27.5263C21.3594 26.6835 22.0428 26.0001 22.8857 26H35.6051ZM24.412 51.184H34.0787V35.6668H24.412V51.184Z" fill="#FFF200"/>
<path fill-rule="evenodd" clip-rule="evenodd" d="M73.7625 26C74.6054 26.0001 75.2888 26.6835 75.2888 27.5263V32.3597H80.1219C80.9648 32.3597 81.6482 33.0431 81.6482 33.886V52.9648C81.6482 53.8077 80.9648 54.4911 80.1219 54.4911H75.2888V59.3245C75.2888 60.1673 74.6054 60.8503 73.7625 60.8504H61.0431C60.2003 60.8504 59.5169 60.1673 59.5168 59.3245V54.4911H54.6838C53.8409 54.4911 53.1575 53.8077 53.1575 52.9648V33.886C53.1575 33.0431 53.8408 32.3597 54.6838 32.3597H59.5168V27.5263C59.5169 26.6834 60.2003 26.0001 61.0431 26H73.7625ZM62.5695 51.184H72.2362V35.6668H62.5695V51.184Z" fill="#FFF200"/>
<path d="M51.5593 60.6742C52.0118 60.6742 52.3788 61.0242 52.3788 61.4558V63.931H54.974C55.4265 63.9311 55.7933 64.281 55.7933 64.7127V67.9695C55.7933 68.4011 55.4265 68.7511 54.974 68.7511H52.3788V71.2261C52.3788 71.6578 52.0119 72.0078 51.5593 72.0078H45.5496V73.7013H54.974C55.4265 73.7014 55.7933 74.0513 55.7933 74.483V77.7398C55.7932 78.1714 55.4265 78.5212 54.974 78.5212H41.3154C40.8628 78.5212 40.4959 78.1714 40.4958 77.7398V71.2261C40.4959 70.7945 40.8628 70.4445 41.3154 70.4445H43.9105V67.9695C43.9105 67.5378 44.2775 67.1879 44.7301 67.1879H50.7398V65.4943H41.3154C40.8628 65.4943 40.4959 65.1443 40.4958 64.7127V61.4558C40.4959 61.2486 40.5823 61.0499 40.7359 60.9034C40.8896 60.7568 41.098 60.6742 41.3154 60.6742H51.5593Z" fill="#FFF200"/>
</g>
<defs>
<clipPath id="clip0_123_6">
<rect width="96" height="96" fill="white"/>
</clipPath>
</defs>
</svg>
